<?xml version="1.0" encoding="UTF-8"?>
<!DOCTYPE svg PUBLIC "-//W3C//DTD SVG 1.1//EN" "http://www.w3.org/Graphics/SVG/1.1/DTD/svg11.dtd">
<!-- Creator: CorelDRAW 2017 -->
<svg xmlns="http://www.w3.org/2000/svg" xml:space="preserve" width="18.725mm" height="18.723mm" version="1.1" style="shape-rendering:geometricPrecision; text-rendering:geometricPrecision; image-rendering:optimizeQuality; fill-rule:evenodd; clip-rule:evenodd"
viewBox="0 0 1872.5 1872.3"
 xmlns:xlink="http://www.w3.org/1999/xlink">
 <defs>
  <style type="text/css">
   <![CDATA[
    .fil0 {fill:#FEFEFE}
    .fil1 {fill:#393185;fill-rule:nonzero}
   ]]>
  </style>
 </defs>
 <g id="Layer_x0020_1">
  <metadata id="CorelCorpID_0Corel-Layer"/>
  <circle class="fil0" cx="936.26" cy="935.98" r="922.68"/>
 </g>
 <g id="Layer_x0020_1_0">
  <metadata id="CorelCorpID_1Corel-Layer"/>
  <path class="fil1" d="M785.24 1504.24c0,-13.81 11.22,-25.03 25.03,-25.03 13.81,0 25.03,11.22 25.03,25.03l0 168.38c0,13.81 -11.22,25.03 -25.03,25.03 -13.81,0 -25.03,-11.22 -25.03,-25.03l0 -168.38zm151.01 -1504.43c258.56,0 492.63,104.79 662.09,274.25 169.46,169.41 274.25,403.53 274.25,662.09 0,258.56 -104.79,492.63 -274.25,662.09 -169.41,169.41 -403.53,274.25 -662.09,274.25 -258.56,0 -492.63,-104.79 -662.09,-274.25 -169.46,-169.41 -274.25,-403.53 -274.25,-662.09 0,-258.56 104.79,-492.63 274.25,-662.09 169.41,-169.46 403.53,-274.25 662.09,-274.25zm626.72 309.58c-160.4,-160.4 -381.96,-259.58 -626.71,-259.58 -244.75,0 -466.31,99.18 -626.71,259.58 -160.4,160.4 -259.58,381.96 -259.58,626.71 0,244.75 99.18,466.31 259.58,626.71 160.4,160.4 381.96,259.58 626.71,259.58 244.75,0 466.31,-99.18 626.71,-259.58 160.4,-160.4 259.58,-381.96 259.58,-626.71 0,-244.75 -99.18,-466.31 -259.58,-626.71zm-790.62 847.19l329.54 -40.56 0 -29.45 0 -0.65 0 -15.53c0.05,-9.28 5.29,-18.18 14.18,-22.44 70.11,-33.98 129.12,-87.16 170.16,-152.63 39.7,-63.32 62.62,-138.34 62.62,-218.92 0,-113.91 -46.17,-217.08 -120.87,-291.73 -74.64,-74.64 -177.82,-120.87 -291.73,-120.87 -113.91,0 -217.08,46.17 -291.78,120.87 -74.64,74.64 -120.87,177.82 -120.87,291.73 0,80.79 23.14,156.08 63.16,219.62 41.04,65.15 99.72,118.01 169.35,151.82 9.44,3.56 16.18,12.67 16.18,23.41l0 12.94 0 72.43 0.06 -0.04zm329.53 134.95l-329.54 40.56 0 29.39c0,3.94 1.56,7.55 4.15,10.09l0.11 0.11c2.53,2.53 6.09,4.15 10.09,4.15l300.95 0c3.94,0 7.55,-1.56 10.09,-4.15l0.11 -0.11c2.53,-2.53 4.15,-6.09 4.15,-10.09l0 -55.39 0 -0.65 0 -13.97 -0.11 0.06zm-380.39 -11.06l0 -95.57c0,-2.27 0.32,-4.48 0.86,-6.53l0 -17.04 -86.08 119.09 85.22 0 0 0.05zm379.53 -114.02l-328.67 40.45 0 74.81 328.67 -40.45 0 -74.81zm-189.25 337.79c0,-13.81 11.22,-25.03 25.03,-25.03 13.81,0 25.03,11.22 25.03,25.03l0 39.05c0,13.81 -11.22,25.03 -25.03,25.03 -13.81,0 -25.03,-11.22 -25.03,-25.03l0 -39.05zm0 124.59c0,-13.81 11.22,-25.03 25.03,-25.03 13.81,0 25.03,11.22 25.03,25.03l0 43.85c0,13.81 -11.22,25.03 -25.03,25.03 -13.81,0 -25.03,-11.22 -25.03,-25.03l0 -43.85zm21.03 -1258.28l41.53 0c14.08,0 26.91,5.77 36.19,14.99l1.73 1.94c8.25,9.11 13.27,21.14 13.27,34.25l0 23.89c0,2.75 0.05,5.02 0.38,6.2 10.03,4.26 19.63,9.17 28.75,14.62l1.4 0.92c7.17,4.42 14.13,9.22 20.82,14.4 1.29,-0.49 2.91,-1.35 4.69,-2.37l20.71 -11.92c12.24,-7.07 26.16,-8.52 38.72,-5.12 12.62,3.4 24,11.6 31.07,23.78l36.84 63.91c7.07,12.24 8.47,26.16 5.12,38.72l-0.49 1.62c-3.61,11.97 -11.7,22.71 -23.41,29.39l-20.66 11.92c-2.43,1.46 -4.42,2.75 -5.18,3.61l0.11 0.76c0.54,4.53 0.97,8.74 1.19,12.73l0 0.22c0.32,5.34 0.49,10.14 0.49,14.4 0,6.09 -0.27,12.3 -0.76,18.55 -0.32,3.99 -0.76,8.14 -1.35,12.4 1.02,0.81 2.59,1.78 4.37,2.8l20.6 11.92c12.24,7.07 20.49,18.45 23.84,31.07 3.4,12.57 1.94,26.48 -5.07,38.72l-36.84 63.8c-7.07,12.24 -18.45,20.49 -31.07,23.84 -12.57,3.4 -26.54,1.94 -38.72,-5.07l-20.76 -11.97c-2.37,-1.4 -4.42,-2.43 -5.66,-2.7 -8.52,6.42 -17.53,12.3 -27.07,17.58 -7.87,4.37 -15.96,8.25 -24.22,11.65 -0.22,1.29 -0.27,3.07 -0.27,5.12l0 23.89c0,14.08 -5.77,26.91 -14.99,36.19 -9.28,9.28 -22.06,14.99 -36.19,14.99l-73.67 0c-14.02,0 -26.81,-5.77 -36.14,-15.05 -9.33,-9.22 -15.05,-22.01 -15.05,-36.14l0 -23.89c0,-2.75 -0.05,-5.02 -0.38,-6.2 -9.82,-4.15 -19.42,-9.11 -28.64,-14.62 -7.66,-4.53 -15.1,-9.65 -22.33,-15.32 -1.24,0.49 -2.86,1.35 -4.58,2.32l-22.71 13c-11.76,6.15 -24.86,7.28 -36.78,4.1 -12.62,-3.4 -24,-11.6 -31.07,-23.78 -12.03,-20.82 -26.97,-44.87 -37.92,-65.85 -6.15,-11.76 -7.28,-24.86 -4.05,-36.78 3.34,-12.57 11.6,-23.95 23.89,-31.07l20.66 -11.92c2.37,-1.46 4.31,-2.64 5.18,-3.61l-0.11 -0.76c-0.59,-4.58 -0.97,-8.85 -1.19,-12.73l0 -0.22c-0.32,-5.34 -0.49,-10.14 -0.49,-14.4 0,-6.09 0.27,-12.3 0.76,-18.55 0.32,-3.99 0.76,-8.14 1.35,-12.4 -1.02,-0.86 -2.53,-1.83 -4.26,-2.8l-20.71 -11.97c-12.3,-7.07 -20.55,-18.5 -23.89,-31.07 -3.34,-12.57 -1.94,-26.54 5.12,-38.72 12.19,-21.14 24.43,-43.26 36.94,-64.13 7.07,-12.08 18.34,-20.23 30.9,-23.62 12.57,-3.34 26.48,-1.94 38.72,5.12 7.17,3.99 14.89,8.31 21.9,12.67 1.89,1.02 3.45,1.78 4.53,2 8.52,-6.42 17.53,-12.3 27.02,-17.58 7.87,-4.37 15.96,-8.25 24.27,-11.65 0.22,-1.29 0.27,-3.07 0.27,-5.12l0 -23.89c0,-14.02 5.77,-26.81 14.99,-36.08l0.59 -0.59c9.28,-8.95 21.84,-14.51 35.6,-14.51l32.14 0 0.03 0.17zm9.33 50l-41.53 0c-0.38,0 -0.65,0.11 -0.81,0.27l-0.11 0.11c-0.16,0.16 -0.27,0.49 -0.27,0.81l0 23.89c0,7.71 -0.76,15.26 -3.29,22.76 -3.07,8.9 -8.31,16.77 -17.1,23.3 -1.83,1.4 -3.94,2.53 -6.2,3.4 -8.31,3.13 -16.23,6.8 -23.68,10.95 -7.6,4.21 -14.89,9.01 -21.9,14.35l-2.86 1.83c-10.89,6.69 -21.3,8.63 -31.66,7.5 -8.74,-0.97 -16.4,-4.15 -23.89,-8.36 -7.6,-4.05 -14.99,-8.79 -22.6,-12.89l-0.59 0.05 -0.54 0.27c-12.62,20.23 -25.08,43.26 -37.11,64.07 -0.11,0.22 -0.11,0.59 -0.05,0.92 0.11,0.38 0.27,0.7 0.43,0.76l20.71 11.97c6.8,3.94 13.05,8.36 18.18,14.29 6.26,7.17 10.46,15.8 11.65,26.81 0.22,2.16 0.16,4.37 -0.22,6.63 -0.7,4.48 -1.29,9.33 -1.73,14.56 -0.38,4.64 -0.59,9.55 -0.59,14.67 0,4.21 0.11,7.87 0.27,11.06l0.05 0.49c0.27,4.26 0.65,8.09 1.02,11.43l0.16 2.37c0.59,13.21 -2.97,23.52 -9.33,32.09l-0.11 0.11c-5.61,7.6 -12.67,12.78 -20.55,17.37l-20.82 11.97c-0.16,0.11 -0.32,0.43 -0.43,0.76 -0.11,2 33.65,59.22 36.89,64.72 0.16,0.27 0.49,0.49 0.81,0.54 2,0.05 18.55,-10.19 21.63,-11.97 6.8,-3.94 13.75,-7.12 21.52,-8.58 9.33,-1.78 18.88,-1.13 29.07,3.45 2,0.92 3.88,2.05 5.66,3.51 6.47,5.29 13.65,10.36 21.36,14.99 6.85,4.21 14.18,7.93 21.84,11.22 1.56,0.54 3.07,1.24 4.53,2.1 11.11,6.04 17.96,14.13 22.17,23.78 3.83,8.79 4.85,17.47 4.85,26.54l0 23.89c0,0.27 0.16,0.59 0.38,0.81 0.16,0.27 0.49,0.38 0.81,0.38l73.67 0c0.27,0 0.59,-0.16 0.81,-0.38 0.22,-0.22 0.38,-0.54 0.38,-0.81l0 -23.89c0,-7.77 0.76,-15.26 3.29,-22.76 3.07,-8.85 8.31,-16.67 16.83,-23.08 1.89,-1.46 4.05,-2.7 6.42,-3.56 8.25,-3.13 16.18,-6.8 23.68,-10.95 7.07,-3.94 13.97,-8.36 20.55,-13.32 1.78,-1.56 3.78,-2.86 5.88,-3.83 10.3,-5.93 20.23,-7.66 30.04,-6.53 9.38,1.02 17.47,4.58 25.46,9.17l20.71 11.97c0.22,0.11 0.59,0.11 0.92,0.05 0.38,-0.05 0.7,-0.27 0.81,-0.43l36.84 -63.91c0.11,-0.22 0.11,-0.59 0.05,-0.92 -0.05,-0.38 -0.27,-0.7 -0.43,-0.81l-20.82 -11.92c-6.69,-3.88 -12.84,-8.25 -18.07,-14.29 -6.26,-7.17 -10.46,-15.8 -11.65,-26.81 -0.22,-2.16 -0.16,-4.37 0.22,-6.63 0.7,-4.48 1.29,-9.33 1.73,-14.56 0.38,-4.64 0.59,-9.55 0.59,-14.67 0,-4.21 -0.11,-7.87 -0.27,-11.06l-0.05 -0.49c-0.27,-4.26 -0.65,-8.09 -1.02,-11.38l-0.16 -2.37c-0.59,-13.21 2.97,-23.52 9.33,-32.09 5.61,-7.6 12.73,-12.84 20.66,-17.42l20.82 -11.92 0.43 -0.81c0.11,-0.38 0.11,-0.76 -0.05,-1.02l-36.84 -63.7c-0.16,-0.27 -0.49,-0.49 -0.81,-0.54 -0.38,-0.11 -0.76,-0.11 -1.02,0.05l-20.71 11.92c-6.85,3.94 -13.75,7.12 -21.41,8.58 -9.33,1.83 -18.93,1.08 -29.07,-3.4 -2,-0.92 -3.88,-2.05 -5.66,-3.51 -6.31,-5.18 -13.05,-9.98 -20.12,-14.29l-1.24 -0.7c-7.07,-4.26 -14.4,-8.04 -21.9,-11.22 -2,-0.7 -3.88,-1.67 -5.61,-2.8 -10.46,-5.99 -16.99,-13.81 -20.98,-22.98 -3.83,-8.79 -4.85,-17.47 -4.85,-26.54l0 -23.89 -0.11 -0.54 -0.27 -0.27c-0.22,-0.22 -0.54,-0.38 -0.81,-0.38l-32.14 0 -0.07 -0.31zm-5.88 123.67c32.79,0 62.62,13.38 84.24,34.95l0.16 0.16c21.52,21.63 34.84,51.4 34.84,84.14 0,32.79 -13.38,62.62 -34.95,84.24l-0.16 0.16c-21.63,21.52 -51.4,34.84 -84.14,34.84 -32.95,0 -62.78,-13.38 -84.35,-34.95l-1.46 -1.56c-20.71,-21.47 -33.49,-50.64 -33.49,-82.79 0,-32.95 13.38,-62.78 34.95,-84.35 21.57,-21.57 51.4,-34.95 84.35,-34.95l0.01 0.11zm48.98 70.22c-12.46,-12.46 -29.77,-20.23 -48.97,-20.23 -19.15,0 -36.46,7.77 -48.97,20.28 -12.51,12.51 -20.28,29.88 -20.28,48.97 0,18.55 7.28,35.43 19.15,47.89l1.19 1.08c12.51,12.51 29.88,20.28 48.97,20.28 19.2,0 36.51,-7.71 48.97,-20.23l0.11 -0.11c12.46,-12.46 20.23,-29.77 20.23,-48.97 0,-19.2 -7.71,-36.51 -20.23,-48.97l-0.11 -0.11 -0.06 0.12zm-48.98 -400.62c127.72,0 243.4,51.78 327.11,135.48 83.71,83.71 135.48,199.39 135.48,327.11 0,89.96 -25.83,174.04 -70.44,245.24 -42.55,67.9 -102.2,123.94 -172.86,162.07l91.8 127.07 45.25 62.35c5.39,7.23 7.87,15.26 7.87,22.92 0,5.18 -1.19,10.19 -3.34,14.83l-1.56 2.8c-2.27,3.78 -5.18,7.07 -8.74,9.71l-0.11 0.05c-5.88,4.37 -13.21,7.01 -21.57,7.01l-113.32 0 0 31.01c0,17.58 -7.23,33.65 -18.88,45.36l-0.11 0.11c-11.7,11.65 -27.72,18.88 -45.36,18.88l-300.95 0c-17.58,0 -33.65,-7.23 -45.36,-18.88l-0.11 -0.11c-11.65,-11.65 -18.88,-27.72 -18.88,-45.36l0 -31.01 -115.04 0c-8.36,0 -15.69,-2.64 -21.57,-7.01l-0.11 -0.11c-3.51,-2.64 -6.47,-5.93 -8.68,-9.65l-1.62 -2.86c-2.16,-4.64 -3.34,-9.65 -3.34,-14.83 0,-6.96 2.1,-14.18 6.47,-20.93l1.4 -2.1c10.25,-13.75 40.61,-55.66 70.98,-97.67l66.12 -91.69c-70.44,-38.02 -129.87,-93.68 -172.37,-161.1 -44.93,-71.35 -70.98,-155.76 -70.98,-246.15 0,-127.72 51.78,-243.4 135.48,-327.11 83.71,-83.71 199.39,-135.48 327.11,-135.48l0.23 0.05zm215.63 950.05l0 116.66 84.35 0 -29.29 -40.4 -55.01 -76.26 -0.05 0zm-113.64 340.43c0,-13.81 11.22,-25.03 25.03,-25.03 13.81,0 25.03,11.22 25.03,25.03l0 168.38c0,13.81 -11.22,25.03 -25.03,25.03 -13.81,0 -25.03,-11.22 -25.03,-25.03l0 -168.38z"/>
 </g>
</svg>
