<?xml version="1.0" encoding="UTF-8"?>
<!DOCTYPE svg PUBLIC "-//W3C//DTD SVG 1.1//EN" "http://www.w3.org/Graphics/SVG/1.1/DTD/svg11.dtd">
<!-- Creator: CorelDRAW 2017 -->
<svg xmlns="http://www.w3.org/2000/svg" xml:space="preserve" width="18.725mm" height="18.723mm" version="1.1" style="shape-rendering:geometricPrecision; text-rendering:geometricPrecision; image-rendering:optimizeQuality; fill-rule:evenodd; clip-rule:evenodd"
viewBox="0 0 1872.5 1872.3"
 xmlns:xlink="http://www.w3.org/1999/xlink">
 <defs>
  <style type="text/css">
   <![CDATA[
    .fil0 {fill:#FEFEFE}
    .fil1 {fill:#393185;fill-rule:nonzero}
   ]]>
  </style>
 </defs>
 <g id="Layer_x0020_1">
  <metadata id="CorelCorpID_0Corel-Layer"/>
  <circle class="fil0" cx="936.26" cy="935.98" r="922.68"/>
 </g>
 <g id="Layer_x0020_1_0">
  <metadata id="CorelCorpID_1Corel-Layer"/>
  <path class="fil1" d="M936.25 229.78c27.87,0 53.11,11.31 71.49,29.69l0.11 0.11c18.39,18.39 29.69,43.63 29.69,71.49 0,27.87 -11.31,53.11 -29.69,71.49l-0.11 0.11c-18.39,18.39 -43.63,29.69 -71.49,29.69 -27.87,0 -53.11,-11.31 -71.49,-29.69l-0.11 -0.11c-18.39,-18.39 -29.69,-43.63 -29.69,-71.49 0,-27.87 11.31,-53.11 29.69,-71.49l0.11 -0.11c18.39,-18.39 43.63,-29.69 71.49,-29.69zm319.32 393.1c12.33,12.33 12.33,32.32 0,44.65 -12.33,12.33 -32.32,12.33 -44.65,0 -12.33,-12.33 -12.33,-32.32 0,-44.65 12.33,-12.33 32.32,-12.33 44.65,0zm132.82 318.75c0,17.47 -14.16,31.64 -31.64,31.64 -17.47,0 -31.64,-14.16 -31.64,-31.64 0,-17.47 14.16,-31.64 31.64,-31.64 17.47,0 31.64,14.16 31.64,31.64zm-131.57 319.32c-12.33,12.33 -32.32,12.33 -44.65,0 -12.33,-12.33 -12.33,-32.32 0,-44.65 12.33,-12.33 32.32,-12.33 44.65,0 12.33,12.33 12.33,32.32 0,44.65zm-318.75 132.82c-17.47,0 -31.64,-14.16 -31.64,-31.64 0,-17.47 14.16,-31.64 31.64,-31.64 17.47,0 31.64,14.16 31.64,31.64 0,17.47 -14.16,31.64 -31.64,31.64zm-319.32 -131.56c-12.33,-12.33 -12.33,-32.32 0,-44.65 12.33,-12.33 32.32,-12.33 44.65,0 12.33,12.33 12.33,32.32 0,44.65 -12.33,12.33 -32.32,12.33 -44.65,0zm-132.82 -318.75c0,-17.47 14.16,-31.64 31.64,-31.64 17.47,0 31.64,14.16 31.64,31.64 0,17.47 -14.16,31.64 -31.64,31.64 -17.47,0 -31.64,-14.16 -31.64,-31.64zm131.57 -319.32c12.33,-12.33 32.32,-12.33 44.65,0 12.33,12.33 12.33,32.32 0,44.65 -12.33,12.33 -32.32,12.33 -44.65,0 -12.33,-12.33 -12.33,-32.32 0,-44.65zm318.75 -132.82c17.47,0 31.64,14.16 31.64,31.64 0,17.47 -14.16,31.64 -31.64,31.64 -17.47,0 -31.64,-14.16 -31.64,-31.64 0,-17.47 14.16,-31.64 31.64,-31.64zm0 -491.43c258.56,0 492.69,104.84 662.05,274.21 169.48,169.48 274.21,403.49 274.21,662.05 0,258.56 -104.84,492.69 -274.21,662.05 -169.48,169.48 -403.49,274.21 -662.05,274.21 -258.56,0 -492.69,-104.84 -662.05,-274.21 -169.48,-169.48 -274.21,-403.49 -274.21,-662.05 0,-258.56 104.84,-492.69 274.21,-662.05 169.48,-169.48 403.49,-274.21 662.05,-274.21zm626.76 309.61c-160.35,-160.35 -382.02,-259.59 -626.76,-259.59 -244.74,0 -466.3,99.25 -626.76,259.59 -160.35,160.35 -259.59,382.02 -259.59,626.76 0,244.74 99.25,466.3 259.59,626.76 160.35,160.35 382.02,259.59 626.76,259.59 244.74,0 466.3,-99.25 626.76,-259.59 160.35,-160.35 259.59,-382.02 259.59,-626.76 0,-244.74 -99.25,-466.3 -259.59,-626.76zm-659.43 797.73l65.33 0c16.79,0 32.09,6.85 43.28,18.04l0.11 0.11 1.48 1.6c27.98,-10.85 53.11,-27.41 73.89,-48.31 25.01,-25.01 43.86,-56.08 54.02,-90.79l0 -0.11 0 -0.11 0 -0.11 0 -0.11 0 -0.11 0 -0.11 0 -0.11 0 -0.11 0 -0.11 0 -0.11c4.91,-17.13 7.77,-35.06 8.22,-53.56l0 -0.23 0 -0.34 0 -0.46 0 -0.46 0 -0.46 0 -0.91 0 -0.11 0 -0.34 0 -0.46 0 -0.91 0 -0.46 0 -0.46 0 -0.46 0 -0.46 0 -1.03 0 -0.46 0 -0.34 0 -0.23 0 -0.46 0 -1.03 0 -0.46 0 -0.46 0 -0.11 0 -0.34 0 -0.46 0 -0.91 0 -0.46 -0.11 -3.2 0 -0.11c-2.86,-54.7 -26.15,-104.04 -62.36,-140.25l-0.11 -0.11c-38.72,-38.72 -92.28,-62.7 -151.44,-62.7 -59.16,0 -112.72,23.98 -151.44,62.7 -23.3,23.3 -41.23,51.96 -51.85,83.94l0 0.57c-0.11,2.28 -0.46,4.57 -1.03,6.97 -2.74,9.48 -4.91,19.42 -6.4,29.69 -1.37,9.71 -2.06,19.87 -2.06,30.38 0,10.28 0.69,20.1 1.94,29.58l0.11 0.8c1.37,9.59 3.31,18.96 5.82,27.75 1.03,2.74 1.6,5.71 1.6,8.91l0 3.2c0,13.82 -11.19,25.01 -25.01,25.01l-22.16 0c-20.56,0 -39.29,-8.45 -52.88,-22.04l-0.11 -0.11c-13.59,-13.59 -22.04,-32.32 -22.04,-52.88l0 -40.31c0,-19.76 7.77,-37.8 20.44,-51.16l1.6 -1.71c13.59,-13.59 32.32,-22.04 52.99,-22.04l3.88 0c13.36,-34.72 33.92,-65.9 59.73,-91.71 47.85,-47.85 113.86,-77.43 186.84,-77.43 72.86,0 138.87,29.58 186.73,77.43l0.11 0.11c25.81,25.81 46.25,56.99 59.73,91.59l5.25 0c20.67,0 39.4,8.45 52.99,22.04 13.59,13.59 22.04,32.32 22.04,52.99l0 40.31c0,20.67 -8.45,39.4 -22.04,52.99l-1.71 1.6c-13.48,12.68 -31.52,20.44 -51.16,20.44l-5.25 0c-13.36,34.72 -33.92,65.9 -59.73,91.71 -26.15,26.15 -57.79,46.82 -93.08,60.3 -1.37,14.5 -7.88,27.75 -17.7,37.57l-0.11 0.11c-11.19,11.08 -26.5,18.04 -43.28,18.04l-65.33 0c-16.79,0 -32.09,-6.85 -43.28,-18.04l-0.11 -0.11c-11.08,-11.19 -18.04,-26.5 -18.04,-43.28 0,-16.79 6.85,-32.09 18.04,-43.28l0.11 -0.11c11.19,-11.08 26.5,-18.04 43.28,-18.04l0.26 -0.83zm536.66 -669.59c19.76,19.76 29.69,45.68 29.69,71.49 0,25.92 -9.94,51.85 -29.69,71.61 -19.76,19.76 -45.68,29.69 -71.61,29.69 -25.81,0 -51.74,-9.94 -71.49,-29.69l-0.11 -0.11c-19.76,-19.76 -29.69,-45.68 -29.69,-71.49 0,-25.92 9.94,-51.85 29.69,-71.61 19.76,-19.76 45.68,-29.69 71.61,-29.69 25.92,0 51.74,9.94 71.49,29.69l0.11 0.11zm-20.33 71.49c0,-13.13 -5.03,-26.27 -14.96,-36.32l-0.11 -0.11c-10.05,-9.94 -23.18,-14.96 -36.32,-14.96 -13.13,0 -26.27,5.03 -36.2,15.08 -10.05,10.05 -15.08,23.18 -15.08,36.32 0,13.13 5.03,26.38 14.96,36.2l0.11 0.11c9.94,9.94 23.07,14.96 36.2,14.96 13.13,0 26.27,-5.03 36.32,-15.08 10.05,-10.05 15.08,-23.18 15.08,-36.2zm230.01 432.04c0,27.87 -11.31,53.11 -29.69,71.49l-0.11 0.11c-18.39,18.39 -43.63,29.69 -71.49,29.69 -27.87,0 -53.11,-11.31 -71.49,-29.69l-0.11 -0.11c-18.39,-18.39 -29.69,-43.63 -29.69,-71.49 0,-27.87 11.31,-53.11 29.69,-71.49l0.11 -0.11c18.39,-18.39 43.63,-29.69 71.49,-29.69 27.87,0 53.11,11.31 71.49,29.69l0.11 0.11c18.39,18.39 29.69,43.63 29.69,71.49zm-64.98 36.21c9.25,-9.25 14.96,-22.04 14.96,-36.2 0,-14.28 -5.71,-27.07 -14.96,-36.2l-0.11 -0.11c-9.25,-9.25 -22.04,-14.96 -36.2,-14.96 -14.28,0 -27.07,5.71 -36.2,14.96l-0.11 0.11c-9.25,9.25 -14.96,22.04 -14.96,36.2 0,14.28 5.71,27.07 14.96,36.2l0.11 0.11c9.25,9.25 22.04,14.96 36.2,14.96 14.28,0 27.07,-5.71 36.2,-14.96l0.11 -0.11zm-142.87 468.13c-19.76,19.76 -45.68,29.69 -71.61,29.69 -25.81,0 -51.74,-9.94 -71.49,-29.69l-0.11 -0.11c-19.76,-19.76 -29.69,-45.68 -29.69,-71.49 0,-25.92 9.94,-51.85 29.69,-71.61 19.76,-19.76 45.68,-29.69 71.61,-29.69 25.92,0 51.74,9.94 71.49,29.69l0.11 0.11c19.76,19.76 29.69,45.68 29.69,71.49 0,25.92 -9.94,51.85 -29.69,71.61zm-71.61 -20.33c13.13,0 26.27,-5.03 36.32,-15.08 10.05,-10.05 15.08,-23.18 15.08,-36.2 0,-13.13 -5.03,-26.27 -14.96,-36.32l-0.11 -0.11c-10.05,-9.94 -23.18,-14.96 -36.32,-14.96 -13.13,0 -26.27,5.03 -36.2,15.08 -10.05,10.05 -15.08,23.18 -15.08,36.32 0,13.13 5.03,26.38 14.96,36.2l0.11 0.11c9.94,9.94 23.07,14.96 36.2,14.96zm-432.04 230.01c-27.87,0 -53.11,-11.31 -71.49,-29.69l-0.11 -0.11c-18.39,-18.39 -29.69,-43.63 -29.69,-71.49 0,-27.87 11.31,-53.11 29.69,-71.49l0.11 -0.11c18.39,-18.39 43.63,-29.69 71.49,-29.69 27.87,0 53.11,11.31 71.49,29.69l0.11 0.11c18.39,18.39 29.69,43.63 29.69,71.49 0,27.87 -11.31,53.11 -29.69,71.49l-0.11 0.11c-18.39,18.39 -43.63,29.69 -71.49,29.69zm-36.21 -64.98c9.25,9.25 22.04,14.96 36.2,14.96 14.28,0 27.07,-5.71 36.2,-14.96l0.11 -0.11c9.25,-9.25 14.96,-22.04 14.96,-36.2 0,-14.28 -5.71,-27.07 -14.96,-36.2l-0.11 -0.11c-9.25,-9.25 -22.04,-14.96 -36.2,-14.96 -14.28,0 -27.07,5.71 -36.2,14.96l-0.11 0.11c-9.25,9.25 -14.96,22.04 -14.96,36.2 0,14.28 5.71,27.07 14.96,36.2l0.11 0.11zm-468.01 -142.87l-0.11 -0.11c-19.76,-19.76 -29.69,-45.68 -29.69,-71.49 0,-25.92 9.94,-51.85 29.69,-71.61 19.76,-19.76 45.68,-29.69 71.61,-29.69 25.92,0 51.74,9.94 71.49,29.69l0.11 0.11c19.76,19.76 29.69,45.68 29.69,71.49 0,25.92 -9.94,51.85 -29.69,71.61 -19.76,19.76 -45.68,29.69 -71.61,29.69 -25.81,0 -51.74,-9.94 -71.49,-29.69zm20.21 -71.61c0,13.13 5.03,26.38 14.96,36.2l0.11 0.11c9.94,9.94 23.07,14.96 36.2,14.96 13.13,0 26.27,-5.03 36.32,-15.08 10.05,-10.05 15.08,-23.18 15.08,-36.2 0,-13.13 -5.03,-26.27 -14.96,-36.32l-0.11 -0.11c-10.05,-9.94 -23.18,-14.96 -36.32,-14.96 -13.13,0 -26.27,5.03 -36.2,15.08 -10.05,10.05 -15.08,23.18 -15.08,36.32zm-230.01 -432.04c0,-27.87 11.31,-53.11 29.69,-71.49l0.11 -0.11c18.39,-18.39 43.63,-29.69 71.49,-29.69 27.87,0 53.11,11.31 71.49,29.69l0.11 0.11c18.39,18.39 29.69,43.63 29.69,71.49 0,27.87 -11.31,53.11 -29.69,71.49l-0.11 0.11c-18.39,18.39 -43.63,29.69 -71.49,29.69 -27.87,0 -53.11,-11.31 -71.49,-29.69l-0.11 -0.11c-18.39,-18.39 -29.69,-43.63 -29.69,-71.49zm64.98 -36.21c-9.25,9.25 -14.96,22.04 -14.96,36.2 0,14.28 5.71,27.07 14.96,36.2l0.11 0.11c9.25,9.25 22.04,14.96 36.2,14.96 14.28,0 27.07,-5.71 36.2,-14.96l0.11 -0.11c9.25,-9.25 14.96,-22.04 14.96,-36.2 0,-14.28 -5.71,-27.07 -14.96,-36.2l-0.11 -0.11c-9.25,-9.25 -22.04,-14.96 -36.2,-14.96 -14.28,0 -27.07,5.71 -36.2,14.96l-0.11 0.11zm142.87 -468.13c19.76,-19.76 45.68,-29.69 71.61,-29.69 25.92,0 51.74,9.94 71.49,29.69l0.11 0.11c19.76,19.76 29.69,45.68 29.69,71.49 0,25.92 -9.94,51.85 -29.69,71.61 -19.76,19.76 -45.68,29.69 -71.61,29.69 -25.81,0 -51.74,-9.94 -71.49,-29.69l-0.11 -0.11c-19.76,-19.76 -29.69,-45.68 -29.69,-71.49 0,-25.92 9.94,-51.85 29.69,-71.61zm71.61 20.33c-13.13,0 -26.27,5.03 -36.2,15.08 -10.05,10.05 -15.08,23.18 -15.08,36.32 0,13.13 5.03,26.38 14.96,36.2l0.11 0.11c9.94,9.94 23.07,14.96 36.2,14.96 13.13,0 26.27,-5.03 36.32,-15.08 10.05,-10.05 15.08,-23.18 15.08,-36.2 0,-13.13 -5.03,-26.27 -14.96,-36.32l-0.11 -0.11c-10.05,-9.94 -23.18,-14.96 -36.32,-14.96zm468.7 -165.14c-9.25,-9.25 -22.04,-14.96 -36.2,-14.96 -14.28,0 -27.07,5.71 -36.2,14.96l-0.11 0.11c-9.25,9.25 -14.96,22.04 -14.96,36.2 0,14.28 5.71,27.07 14.96,36.2l0.11 0.11c9.25,9.25 22.04,14.96 36.2,14.96 14.28,0 27.07,-5.71 36.2,-14.96l0.11 -0.11c9.25,-9.25 14.96,-22.04 14.96,-36.2 0,-14.28 -5.71,-27.07 -14.96,-36.2l-0.11 -0.11z"/>
 </g>
</svg>
