<?xml version="1.0" encoding="UTF-8"?>
<!DOCTYPE svg PUBLIC "-//W3C//DTD SVG 1.1//EN" "http://www.w3.org/Graphics/SVG/1.1/DTD/svg11.dtd">
<!-- Creator: CorelDRAW 2017 -->
<svg xmlns="http://www.w3.org/2000/svg" xml:space="preserve" width="18.725mm" height="18.723mm" version="1.1" style="shape-rendering:geometricPrecision; text-rendering:geometricPrecision; image-rendering:optimizeQuality; fill-rule:evenodd; clip-rule:evenodd"
viewBox="0 0 1872.5 1872.3"
 xmlns:xlink="http://www.w3.org/1999/xlink">
 <defs>
  <style type="text/css">
   <![CDATA[
    .fil0 {fill:#FEFEFE}
    .fil1 {fill:#393185;fill-rule:nonzero}
   ]]>
  </style>
 </defs>
 <g id="Layer_x0020_1">
  <metadata id="CorelCorpID_0Corel-Layer"/>
  <circle class="fil0" cx="936.26" cy="935.98" r="922.68"/>
 </g>
 <g id="Layer_x0020_1_0">
  <metadata id="CorelCorpID_1Corel-Layer"/>
  <g id="_1851405170256">
   <path class="fil1" d="M548.08 1047.64c13.7,-6.8 28.75,-9.92 43.63,-9.44 23.46,0.7 46.6,10.25 64.02,28.42l2.05 2.21c16.45,18.34 24.22,41.48 23.52,64.4l-0.16 3.61 3.45 0.05c23.46,0.7 46.6,10.25 64.02,28.42l2 2.16c16.45,18.28 24.27,41.53 23.57,64.45l-0.16 3.61 3.45 0.05c23.46,0.7 46.6,10.3 64.02,28.48l2 2.16c16.45,18.28 24.27,41.53 23.57,64.45l-0.16 3.61 3.45 0.05c23.68,0.7 47.08,10.46 64.56,29.02 17.47,18.55 25.73,42.45 25.03,66.02 -0.38,12.67 -3.34,25.24 -8.85,36.89 3.83,1.08 7.82,1.67 11.76,1.67 10.36,0.05 20.71,-3.56 28.91,-10.84l1.08 -1.02c8.68,-8.25 13.21,-19.25 13.48,-30.26 0.27,-10.73 -3.34,-21.57 -10.89,-30.04l-0.49 -0.49 -0.59 -0.59c-20.76,-19.69 -42.61,-44.71 -62.78,-66.34l-0.76 -0.81 -0.32 -0.32 -0.76 -0.81 -0.32 -0.32 -0.76 -0.81 -0.32 -0.32 -0.76 -0.81 -0.32 -0.32 -0.76 -0.81 -0.27 -0.32 -0.16 -0.16 0 0c-9.33,-9.98 -8.85,-25.62 1.02,-35.06 9.92,-9.44 25.56,-9.06 35.11,0.7l0.16 0.16 0.27 0.32 68.98 72.7c8.09,7.98 18.66,12.19 29.29,12.46 10.95,0.27 22.01,-3.51 30.58,-11.38l1.56 -1.51c7.93,-8.09 12.14,-18.61 12.4,-29.23 0.27,-11.16 -3.61,-22.44 -11.81,-31.07l-69.36 -73.13c-9.49,-9.98 -9.11,-25.78 0.86,-35.27 9.98,-9.49 25.78,-9.11 35.27,0.86l69.36 73.13c8.2,8.68 19.25,13.21 30.31,13.48 10.73,0.27 21.57,-3.34 30.04,-10.89l0.97 -0.92c8.68,-8.25 13.21,-19.25 13.48,-30.31 0.27,-10.79 -3.34,-21.63 -10.95,-30.15 -21.3,-20.06 -43.79,-45.95 -64.4,-67.96l-1.02 -1.08 -1.02 -1.08 -0.97 -1.02 -0.05 -0.05 -0.38 -0.43 -0.05 -0.05 -0.38 -0.43 -0.05 -0.05 -0.38 -0.43 -0.05 -0.05 -0.32 -0.43 -0.05 -0.05 -0.32 -0.43 -0.05 -0.05 -0.32 -0.43 -0.05 -0.05 -0.32 -0.43 -0.05 -0.05 -0.27 -0.49c-6.2,-9.82 -4.8,-23.03 3.94,-31.34 9.55,-9.06 24.38,-9.11 33.92,-0.38l0.43 0.38 0.05 0.05 0.43 0.38 0.05 0.05 0.38 0.38 0.05 0.05 67.58 71.25c8.09,7.98 18.66,12.19 29.29,12.46 10.95,0.27 22.01,-3.51 30.58,-11.38l0.43 -0.49c8.47,-8.68 12.94,-19.74 13.21,-30.74 0.27,-11.06 -3.51,-22.17 -11.6,-30.8l-69.2 -73.89 -674.66 9.11 0.1 0.16zm388.17 -1047.83c258.56,0 492.63,104.79 662.09,274.25 169.41,169.41 274.25,403.53 274.25,662.09 0,258.56 -104.79,492.63 -274.25,662.09 -169.41,169.41 -403.53,274.25 -662.09,274.25 -258.56,0 -492.63,-104.79 -662.09,-274.25 -169.46,-169.41 -274.25,-403.53 -274.25,-662.09 0,-258.56 104.79,-492.63 274.25,-662.09 169.41,-169.46 403.53,-274.25 662.09,-274.25zm318.26 1235.63l-0.05 3.51c-0.65,23.73 -10.19,47.25 -28.48,64.83l-2.05 1.89c-18.39,16.67 -41.85,24.59 -65.04,24l-3.61 -0.16 -0.05 3.51c-0.59,23.3 -9.82,46.38 -27.45,63.8l-3.02 2.86c-18.39,16.67 -41.85,24.65 -65.04,24.05l-3.61 -0.16 -0.05 3.51c-0.59,23.3 -9.87,46.33 -27.45,63.8 -0.97,1.02 -1.89,2 -3.02,2.86 -17.8,16.18 -40.4,24.11 -62.83,24.05 -16.18,-0.05 -32.31,-4.21 -46.6,-12.51 -15.69,9.71 -33.6,14.29 -51.35,13.75 -23.68,-0.7 -47.08,-10.46 -64.56,-29.02 -17.47,-18.55 -25.73,-42.45 -25.03,-66.02l0.16 -3.61 -3.45 -0.05c-23.68,-0.7 -47.08,-10.46 -64.56,-29.02 -17.47,-18.55 -25.73,-42.45 -25.03,-66.02l0.16 -3.61 -3.45 -0.05c-23.46,-0.7 -46.6,-10.25 -64.02,-28.42l-2 -2.16c-16.45,-18.28 -24.27,-41.53 -23.57,-64.45l0.16 -3.61 -3.45 -0.05c-23.68,-0.7 -47.08,-10.46 -64.56,-29.02 -17.47,-18.55 -25.73,-42.45 -25.03,-66.02 0.49,-16.34 5.29,-32.58 14.29,-46.76l-70.01 -74.32 -27.67 28.48c-9.38,9.65 -24.65,10.03 -34.57,1.13l-67.15 -60.41c-10.25,-9.22 -11.06,-25.03 -1.83,-35.27 9.22,-10.25 25.03,-11.06 35.27,-1.83l49.3 44.39 28.53 -29.39 0.97 -0.97 316.54 -325.87 -231.11 -231.11c-9.76,-9.76 -9.76,-25.62 0,-35.38 9.76,-9.76 25.62,-9.76 35.38,0l248.47 248.47c9.76,9.76 9.76,25.62 0,35.38l-17.42 17.91 46.76 47.68 107.44 1.02 0.32 0 0.32 0 133.92 1.51 41.74 -40.61 -26.75 -27.56c-9.76,-9.76 -9.76,-25.62 0,-35.38l248.47 -248.47c9.76,-9.76 25.62,-9.76 35.38,0 9.76,9.76 9.76,25.62 0,35.38l-231.11 231.11 25.4 26.16c0.65,0.54 1.29,1.13 1.89,1.78 0.59,0.59 1.19,1.29 1.67,1.94l288.65 297.12c1.08,0.81 2.1,1.73 3.02,2.7 0.92,0.92 1.67,1.89 2.43,2.91l22.98 23.62 49.3 -44.39c10.25,-9.22 26.05,-8.41 35.27,1.83 9.22,10.25 8.41,26.05 -1.83,35.27l-67.15 60.46c-9.92,8.9 -25.19,8.47 -34.57,-1.19l-25.19 -25.94 -92.07 88.07c8.04,14.67 11.76,30.9 11.33,47.08 -0.59,23.78 -10.14,47.35 -28.1,65.31l-2.05 1.83c-18.39,16.67 -41.85,24.65 -65.04,24.05l-3.61 -0.16 0.12 -0.04zm-31.77 -196.92l-104.69 -111 -128.85 3.02 -103.88 97.62c-35.16,33.06 -75.72,36.24 -108.84,22.27 -13.11,-5.56 -24.97,-13.81 -34.68,-23.95 -9.76,-10.19 -17.53,-22.38 -22.54,-35.81 -12.62,-33.92 -7.71,-74.81 27.45,-109.32l123.35 -121.24 -57.44 -0.54c-6.69,0.22 -13.43,-2.27 -18.5,-7.44l-53.18 -54.2 -265.14 272.85 72.33 76.8 674.61 -9.11 0 0.05zm35.76 -34.73l0.76 0.81 2.48 2.64 48.54 51.45 88.99 -85.16 -258.34 -265.84 -49.08 47.73c-5.12,5.02 -11.87,7.34 -18.55,7.01l-132.89 -1.51 -158.78 156.08c-18.93,18.61 -22.01,39.53 -15.69,56.41 2.53,6.85 6.63,13.21 11.76,18.61 5.18,5.39 11.38,9.76 18.07,12.62 16.29,6.85 36.73,4.75 55.34,-12.67l110.83 -104.09c4.96,-4.64 11.33,-6.9 17.64,-6.74l148.53 -3.45c7.34,-0.16 13.97,2.91 18.61,7.82l111.75 118.44 0.03 -0.16zm-694.34 92.28c-0.7,0.92 -1.51,1.73 -2.32,2.53 -1.24,1.19 -2.53,2.16 -3.94,3.02 -7.23,7.77 -11.06,17.64 -11.33,27.51 -0.32,10.89 3.51,21.95 11.54,30.53 8.04,8.58 18.77,13.05 29.56,13.38 10.89,0.32 21.95,-3.51 30.47,-11.54 8.58,-8.04 13.05,-18.77 13.38,-29.56 0.32,-10.46 -3.24,-21.03 -10.62,-29.45l-0.97 -1.02c-8.04,-8.58 -18.77,-13.05 -29.56,-13.38 -9.17,-0.27 -18.45,2.43 -26.27,8.04l0.06 -0.06zm304.83 288.06c-10.89,-0.32 -21.95,3.51 -30.53,11.54 -8.58,8.04 -13.05,18.77 -13.38,29.56 -0.32,10.89 3.51,21.95 11.54,30.53 8.04,8.58 18.77,13.05 29.56,13.38 10.89,0.32 21.95,-3.51 30.53,-11.54l0.81 -0.76 0.22 -0.27 0.16 -0.16 0.32 -0.32 0.05 -0.05 0.05 -0.05c7.5,-7.82 11.43,-17.91 11.76,-27.99 0.32,-10.89 -3.51,-21.95 -11.54,-30.53 -8.04,-8.58 -18.77,-13.05 -29.56,-13.38l0.01 0.04zm-92.87 -98.7c-10.89,-0.32 -21.95,3.51 -30.53,11.54 -8.58,8.04 -13.05,18.77 -13.38,29.56 -0.32,10.89 3.51,21.95 11.54,30.53 8.04,8.58 18.77,13.05 29.56,13.38 10.46,0.32 21.03,-3.24 29.45,-10.62l1.02 -0.97c8.58,-8.04 13.05,-18.77 13.38,-29.56 0.32,-10.46 -3.24,-21.03 -10.57,-29.45l-0.97 -1.02c-8.04,-8.58 -18.77,-13.05 -29.61,-13.38l0.11 -0.01zm-122.76 -87.64l-0.59 0.49c-8.58,8.09 -13.11,18.82 -13.43,29.61 -0.32,10.46 3.24,21.03 10.57,29.45l0.92 1.02c8.09,8.58 18.82,13.11 29.61,13.43 10.46,0.32 21.03,-3.24 29.45,-10.57l1.02 -0.92c8.58,-8.09 13.11,-18.82 13.43,-29.61 0.32,-10.46 -3.24,-21.03 -10.57,-29.45l-0.92 -1.02c-8.09,-8.58 -18.82,-13.11 -29.61,-13.43 -10.46,-0.32 -21.03,3.24 -29.45,10.57l-0.49 0.49 0.06 -0.06zm909.6 -888.35c-160.4,-160.4 -381.96,-259.58 -626.71,-259.58 -244.75,0 -466.31,99.18 -626.71,259.58 -160.4,160.4 -259.58,381.96 -259.58,626.71 0,244.75 99.18,466.31 259.58,626.71 160.4,160.4 381.96,259.58 626.71,259.58 244.75,0 466.31,-99.18 626.71,-259.58 160.4,-160.4 259.58,-381.96 259.58,-626.71 0,-244.75 -99.18,-466.31 -259.58,-626.71z"/>
  </g>
 </g>
</svg>
