<?xml version="1.0" encoding="UTF-8"?>
<!DOCTYPE svg PUBLIC "-//W3C//DTD SVG 1.1//EN" "http://www.w3.org/Graphics/SVG/1.1/DTD/svg11.dtd">
<!-- Creator: CorelDRAW 2017 -->
<svg xmlns="http://www.w3.org/2000/svg" xml:space="preserve" width="18.725mm" height="18.723mm" version="1.1" style="shape-rendering:geometricPrecision; text-rendering:geometricPrecision; image-rendering:optimizeQuality; fill-rule:evenodd; clip-rule:evenodd"
viewBox="0 0 1872.5 1872.3"
 xmlns:xlink="http://www.w3.org/1999/xlink">
 <defs>
  <style type="text/css">
   <![CDATA[
    .fil0 {fill:#FEFEFE}
    .fil1 {fill:#393185;fill-rule:nonzero}
   ]]>
  </style>
 </defs>
 <g id="Layer_x0020_1">
  <metadata id="CorelCorpID_0Corel-Layer"/>
  <circle class="fil0" cx="936.26" cy="935.98" r="922.68"/>
 </g>
 <g id="Layer_x0020_1_0">
  <metadata id="CorelCorpID_1Corel-Layer"/>
  <path class="fil1" d="M787.31 1269.94l-75.08 188.71c67.27,31.61 140.24,46.45 213.92,46.54 85.71,0.18 172.56,-19.41 252.91,-55.06l-76.14 -191.26c-110.03,54.88 -227.18,39.43 -315.52,11.15l-0.09 -0.08zm148.94 -1270.15c258.53,0 492.64,104.76 662.12,274.24 169.39,169.39 274.24,403.51 274.24,662.12 0,258.53 -104.76,492.64 -274.24,662.12 -169.39,169.48 -403.51,274.24 -662.12,274.24 -258.53,0 -492.64,-104.85 -662.12,-274.24 -169.48,-169.39 -274.24,-403.51 -274.24,-662.12 0,-258.53 104.85,-492.64 274.24,-662.12 169.39,-169.39 403.51,-274.24 662.12,-274.24zm626.73 309.63c-160.35,-160.35 -381.99,-259.58 -626.73,-259.58 -244.74,0 -466.29,99.23 -626.73,259.58 -160.35,160.35 -259.58,381.99 -259.58,626.73 0,244.74 99.23,466.38 259.58,626.73 160.35,160.35 381.99,259.58 626.73,259.58 244.74,0 466.38,-99.23 626.73,-259.58 160.35,-160.35 259.58,-381.99 259.58,-626.73 0,-244.74 -99.23,-466.29 -259.58,-626.73zm-464.89 769.52l-3.95 2.28c-31.44,17.65 -63.23,30.12 -88.43,28.19l-0.09 0 -1.14 -0.09 -0.09 0 -1.23 -0.09 0 0 -1.23 -0.18 -1.84 -0.26 -0.09 0 -1.93 -0.26 -0.18 0 -2.02 -0.35 -0.26 0 -2.02 -0.35 -0.35 -0.09 -2.02 -0.35 -0.44 -0.09 -2.11 -0.35 -0.53 -0.09 -2.11 -0.44 -0.7 -0.09 -2.11 -0.44 -0.79 -0.18 -2.11 -0.44 -0.97 -0.18 -2.02 -0.44 -1.14 -0.26 -2.02 -0.44 -1.23 -0.26 -1.93 -0.44 -1.41 -0.26 -1.84 -0.35 -1.58 -0.35 -1.84 -0.35 -1.76 -0.35 -1.76 -0.35 -1.84 -0.44 -1.67 -0.35 -2.02 -0.44 -1.58 -0.35 -2.2 -0.53 -1.41 -0.35 -2.37 -0.53 -1.32 -0.26 -2.55 -0.53 -1.23 -0.26 -2.72 -0.61 -1.05 -0.26 -2.9 -0.61 -0.97 -0.26 -3.07 -0.7 -0.79 -0.18 -3.25 -0.7 -0.7 -0.18 -3.42 -0.79 -0.53 -0.09 -3.6 -0.79 -0.44 -0.09 -3.69 -0.88 -0.26 -0.09 -3.86 -0.88 -0.09 0 -4.04 -0.97 0 0 -3.95 -0.97 -0.18 0 -3.86 -0.88 -0.35 -0.09 -3.69 -0.88 -0.44 -0.09 -3.51 -0.79 -0.61 -0.18 -3.34 -0.79 -0.7 -0.18 -3.16 -0.79 -0.88 -0.18 -3.07 -0.7 -0.97 -0.26 -2.9 -0.7 -1.14 -0.26 -2.72 -0.61 -1.23 -0.26 -2.55 -0.61 -1.32 -0.35 -2.37 -0.53 -1.49 -0.35 -2.2 -0.53 -1.58 -0.35 -2.02 -0.44 -1.67 -0.44 -1.84 -0.44 -1.76 -0.44 -1.67 -0.44 -1.84 -0.44 -1.49 -0.35 -1.93 -0.44 -1.32 -0.35 -1.93 -0.44 -1.23 -0.26 -2.02 -0.53 -1.05 -0.26 -2.02 -0.53 -0.88 -0.26 -2.11 -0.53 -0.79 -0.18 -2.11 -0.53 -0.61 -0.18 -2.11 -0.53 -0.53 -0.09 -2.11 -0.53 -0.44 -0.09 -2.02 -0.53 -0.26 -0.09 -2.02 -0.53 -0.18 -0.09 -1.93 -0.44 -0.09 0 -0.09 0 -3.69 -0.88 0 0 -1.58 -0.35 -0.09 0 -1.41 -0.35 -0.09 0 -1.14 -0.26 -0.18 0 -0.97 -0.26 -0.18 0 -0.79 -0.18 -0.18 -0.09 -0.61 -0.18 -0.18 0 -0.88 -0.18 -1.14 -0.35c-20.64,-5.27 -37.23,-18.35 -47.51,-35.13l-1.41 -2.37 -37.58 -12.47c-51.99,-18.35 -128.82,2.46 -191.52,34.86 -25.99,13.44 -49.26,28.8 -67.18,44.17 -16.07,13.79 -27.22,26.87 -30.91,37.41 -0.88,2.37 -1.23,3.95 -0.97,4.39 5.09,9.84 28.1,-22.48 67.18,-37.32 69.55,-26.43 152.71,-57.96 189.42,-37.23 23.01,13 65.16,34.95 115.65,52.95 49.88,17.74 107.92,31.79 163.33,29.24 43.56,-1.93 88.69,-26.17 129.17,-58.57l6.41 -5.27 0.15 -0.03zm-351.43 -107.4l0.35 -1.67c5.09,-21.08 18.27,-38.2 35.48,-48.65 17.12,-10.45 38.37,-14.4 59.45,-9.31l0.7 0.18c7.2,1.76 68.14,16.68 118.2,28.1 15.98,-16.25 33.9,-32.84 53.13,-48.12 23.89,-18.97 50.05,-36.09 77.63,-48.47 41.62,-18.79 78.59,-23.97 107.92,-19.49 20.9,3.16 38.46,11.33 51.55,23.27 13.96,12.65 22.66,29.07 25.11,48.12 2.46,18.88 -1.49,39.96 -12.82,61.65 -23.36,44.61 -76.22,114.51 -140.68,166.06 -47.95,38.29 -102.74,67.09 -158.15,69.55 -62.96,2.81 -127.24,-12.47 -182.04,-31.96 -54.18,-19.32 -99.05,-42.68 -123.47,-56.46 -16.51,-9.31 -87.81,17.74 -147.44,40.39 -61.56,23.36 -113.72,43.29 -129.17,13.52 -7.03,-13.61 -7.29,-28.45 -1.76,-43.91 6.67,-18.97 23.01,-39.34 45.58,-58.75 20.72,-17.83 47.33,-35.48 76.75,-50.67 72.89,-37.67 164.65,-60.94 230.95,-37.58l12.73 4.22 0 -0.02zm279.68 -21.25c1.14,-2.02 2.55,-4.92 5.44,-8.25 -4.13,3.51 -8.17,7.03 -12.03,10.63l1.58 0.26 1.41 0.18 0 0c0.18,0 1.49,-1.05 3.6,-2.81l0 -0.01zm104.94 -25.46c-16.33,13.79 -42.77,35.65 -63.4,51.46 -12.47,9.48 -24.32,17.39 -34.25,22.04 -5.01,3.42 -11.24,5.18 -17.65,4.22 -3.25,-0.44 -7.99,-1.32 -13.79,-2.46l-0.09 0 -0.7 -0.09 -0.44 -0.09 -1.41 -0.26 -0.18 0 -0.44 -0.09 -0.44 -0.09 -0.79 -0.18 -0.44 -0.09 -0.44 -0.09 0 0 -0.88 -0.18 -0.44 -0.09 -0.44 -0.09 -0.44 -0.09 -0.44 -0.09 -0.18 0 -0.26 -0.09 -0.44 -0.09 -0.44 -0.09 -0.44 -0.09 -0.44 -0.09 -0.44 -0.09 -0.44 -0.09 0 0 -0.44 -0.09 -0.44 -0.09 -0.44 -0.09 -0.44 -0.09 -0.44 -0.09 -0.44 -0.09 -0.26 -0.09 -0.18 0 -0.44 -0.09 -0.44 -0.09 -0.44 -0.09 -1.41 -0.26 -0.18 0 -0.35 -0.09 -0.44 -0.09 -0.44 -0.09 -0.44 -0.09 -0.44 -0.09 -0.44 -0.09 -0.44 -0.09 -0.09 0 -0.44 -0.09 -0.44 -0.09 -0.44 -0.09 -0.44 -0.09 -0.44 -0.09 -0.44 -0.09 -0.44 -0.09 -0.44 -0.09 -0.44 -0.09 -0.44 -0.09 -0.44 -0.09 -0.44 -0.09 -0.44 -0.09 -0.44 -0.09 0 0 -0.44 -0.09 -0.44 -0.09 -0.53 -0.09 -0.44 -0.09 -0.53 -0.09 -0.53 -0.09 -0.44 -0.09 0 0 -0.44 -0.09 -0.53 -0.09 -0.53 -0.09 -0.53 -0.09 -0.53 -0.09 -0.53 -0.09 -0.53 -0.09 0 0 -0.44 -0.09 -0.53 -0.09 -0.53 -0.09 -0.53 -0.09 -0.53 -0.09 -0.53 -0.09 -0.53 -0.09 -0.09 0 -0.44 -0.09 -0.53 -0.09 -0.18 0 -0.18 -0.09 -0.18 0 -0.18 -0.09 -0.18 -0.09 -0.18 -0.09 -0.18 -0.09c-53.3,-11.94 -124.17,-29.42 -131.9,-31.17l-0.61 -0.18c-7.73,-1.84 -15.46,-0.44 -21.78,3.42 -6.32,3.86 -11.15,10.1 -13,17.74 -1.41,5.71 -0.97,11.5 0.97,16.68l0 0.09 0 0.09 0.35 0.88 0 0 0.09 0.18 0.09 0.09 0 0.09c0.53,1.23 1.14,2.46 1.84,3.6 3.6,5.88 9.31,10.54 16.25,12.56l0.09 0 0.18 0.09 0.44 0.09 1.05 0.26 0.88 0.18 0.18 0 0.61 0.18 0.18 0 0.79 0.18 0.18 0 0.97 0.26 0.18 0 1.14 0.26 0.09 0 1.32 0.35 0.09 0 1.58 0.35 0 0 1.76 0.44 0 0 1.84 0.44 0.09 0 1.93 0.44 0.18 0.09 2.02 0.53 0.26 0.09 2.02 0.53 0.35 0.09 2.11 0.53 0.53 0.09 2.11 0.53 0.61 0.18 2.11 0.53 0.7 0.18 2.11 0.53 0.88 0.18 2.02 0.53 1.05 0.26 2.02 0.53 1.14 0.26 1.93 0.44 1.32 0.35 1.93 0.44 1.49 0.35 1.84 0.44 1.67 0.35 1.76 0.44 1.76 0.44 1.67 0.35 1.93 0.44 1.58 0.35 2.11 0.53 1.49 0.35 2.28 0.53 1.32 0.35 2.46 0.61 1.23 0.26 2.63 0.61 1.14 0.26 2.81 0.7 0.97 0.26 2.99 0.7 0.88 0.18 3.07 0.7 0.7 0.18 3.25 0.79 0.61 0.18 3.42 0.79 0.44 0.09 3.6 0.88 0.35 0.09 3.78 0.88 0.18 0 3.86 0.88 0 0 3.95 0.88 0.09 0 3.78 0.88 0.26 0.09 3.69 0.88 0.35 0.09 3.51 0.79 0.53 0.09 3.34 0.79 0.7 0.18 3.16 0.7 0.79 0.18 2.99 0.7 0.88 0.18 2.81 0.61 1.05 0.26 2.72 0.61 1.14 0.26 2.46 0.53 1.23 0.26 2.37 0.53 1.41 0.35 2.2 0.44 1.49 0.35 2.02 0.44 1.58 0.35 1.84 0.44 1.67 0.35 1.67 0.35 1.76 0.35 1.49 0.35 1.84 0.35 1.32 0.26 1.84 0.35 1.23 0.26 1.93 0.35 1.05 0.26 1.93 0.35 0.88 0.18 1.93 0.35 0.79 0.18 2.02 0.35 0.61 0.09 2.02 0.35 0.53 0.09 1.93 0.35 0.44 0.09 1.93 0.35 0.35 0.09 1.93 0.35 0.26 0 1.84 0.35 0.18 0 1.76 0.26 0.09 0 1.67 0.26 1.58 0.18c13.52,0.88 35.83,-8.69 59.63,-22.13 55.5,-31.17 113.98,-81.67 114.25,-81.93l0.26 -0.18 0 0 0.26 -0.26 0 0 0.26 -0.26 0 0 0.26 -0.26 0 0 0.26 -0.26 0 0 0.26 -0.26 0 0 0.26 -0.26 0 0 0.26 -0.26 0 0 0.26 -0.26 0 0 0.26 -0.26 0 0 0.26 -0.26 0 0 0.26 -0.26 0 0 0.26 -0.26 0 0 0.26 -0.26 0.26 -0.26 0 0 0.26 -0.26 0 0 0.18 -0.26 0 0 0.18 -0.26 0 0 0.18 -0.26 0 0 0.18 -0.26 0 0 0.18 -0.26 0.18 -0.26 0 0 0.18 -0.26 0.18 -0.26 0 0 0.18 -0.26 0 0 0.18 -0.26 0.18 -0.26 0.18 -0.35 0.18 -0.26 0.18 -0.35 0.18 -0.35 0.18 -0.35 0.18 -0.35 0.18 -0.35 0.18 -0.35 0.18 -0.35 0.18 -0.35 0.18 -0.35 0.09 -0.35 0.09 -0.35 0.09 -0.35 0.09 -0.35 0.09 -0.35 0.09 -0.35 0 0 0.09 -0.35 0.09 -0.35 0.09 -0.35 0.09 -0.35 0.09 -0.35 0 0 0.09 -0.35 0.09 -0.35 0.09 -0.35 0 0 0.09 -0.35 0.09 -0.35 0.09 -0.35 0 0 0.09 -0.7 0.09 -0.35 0 0 0.09 -0.35 0.09 -0.35 0 -0.35 0 -0.35 0 -0.35 0 0 0 -0.35 0 0 0 -0.35 0 0 0 -0.35 0 0 0 -0.35 0 0 0 -0.35 0 0 0 -0.35 0 0 0 -0.35 0 0 0 -0.35 0 0 0 -0.35 0 0 0 -0.35 0 0 0 -0.35 0 0 0 -0.35 0 0 0 -0.35 0 0 0 -0.35 0 0 0 -0.35 0 0 0 -0.35 0 0 0 -0.35 0 0 0 -0.35 0 0 0 -0.35 0 0 0 -0.35 0 0 -0.09 -0.35 0 0 -0.09 -0.35 0 0 -0.09 -0.35 0 0 -0.09 -0.35 -0.09 -0.35 0 0 -0.09 -0.35 0 0 -0.09 -0.35 0 0 -0.09 -0.35 -0.09 -0.35 0 0 -0.09 -0.35 0 0 -0.09 -0.35 -0.09 -0.35 0 0 -0.09 -0.35 0 0 -0.09 -0.35 0 0 -0.09 -0.35 0 0 -0.09 -0.35 0 0 -0.09 -0.35 0 0 -0.09 -0.35 0 0 -0.09 -0.35 0 0 -0.09 -0.35 0 0 -0.18 -0.35 0 0 -0.09 -0.35 0 0 -0.18 -0.35 0 0 -0.18 -0.35 0 0 -0.18 -0.35 0 0 -0.18 -0.35 0 0 -0.18 -0.35 0 0 -0.18 -0.35 0 0 -0.18 -0.35 -0.18 -0.35 0 0 -0.18 -0.35 -0.18 -0.35 -0.18 -0.35 -0.18 -0.35 -0.18 -0.26 0 0 -0.18 -0.26 -0.18 -0.26 -0.18 -0.26 -0.18 -0.26 -0.18 -0.26 -0.26 -0.26 -0.26 -0.26 -0.26 -0.26 -0.26 -0.26 -0.26 -0.26 -0.26 -0.26c-5.18,-5.97 -12.29,-9.4 -19.58,-9.92 -7.38,-0.53 -15.02,1.67 -20.99,6.76l-0.26 0.18c-1.05,0.88 -5.36,4.57 -11.77,9.92l-0.35 0.26 -0.79 0.61 -0.61 0.53 -0.53 0.44 -0.88 0.7 -0.35 0.26 0.06 0.5zm-463.31 510.11l72.45 -181.95c-58.4,-23.8 -95.89,-48.82 -96.16,-49 -11.5,-7.46 -14.84,-22.92 -7.29,-34.51 7.46,-11.5 22.92,-14.84 34.51,-7.29 0.7,0.44 235.78,157.1 429.41,40.92 199.95,-119.95 346.25,-476.74 346.6,-477.8 5.27,-12.73 19.93,-18.79 32.58,-13.52 12.73,5.27 18.79,19.93 13.52,32.58 -0.44,1.05 -143.49,350.29 -347.57,488.86 0.44,0.88 0.88,1.76 1.23,2.72l76.49 192.05c28.1,-15.1 55.24,-32.23 80.88,-51.2 11.06,-8.17 26.7,-5.88 34.86,5.18 8.17,11.06 5.88,26.7 -5.18,34.86 -118.46,87.55 -264.58,138.31 -408.34,138.04 -132.51,-0.26 -263,-43.64 -368.03,-141.12 -10.1,-9.4 -10.63,-25.2 -1.23,-35.21 9.4,-10.1 25.2,-10.63 35.21,-1.23 23.97,22.22 49.44,41.36 76.05,57.61l0.01 0.01zm629.63 -812.46c26.52,0 50.58,10.8 67.97,28.1l1.49 1.58c16.51,17.3 26.7,40.66 26.7,66.39 0,26.52 -10.8,50.58 -28.1,67.97l-1.58 1.49c-17.3,16.51 -40.66,26.7 -66.39,26.7 -26.43,0 -50.49,-10.8 -67.88,-28.19 -17.39,-17.3 -28.19,-41.36 -28.19,-67.88 0,-26.43 10.8,-50.49 28.19,-67.88 17.3,-17.39 41.36,-28.19 67.88,-28.19l-0.09 -0.09zm32.58 63.49c-8.34,-8.34 -19.85,-13.52 -32.58,-13.52 -12.73,0 -24.24,5.18 -32.58,13.52 -8.34,8.25 -13.52,19.76 -13.52,32.58 0,12.73 5.18,24.24 13.52,32.58 8.25,8.34 19.76,13.52 32.58,13.52 12.21,0 23.36,-4.74 31.53,-12.38l1.05 -1.14c8.34,-8.34 13.52,-19.85 13.52,-32.58 0,-12.21 -4.74,-23.36 -12.38,-31.53l-1.14 -1.05z"/>
 </g>
</svg>
